<svg fill="none" height="43" viewBox="0 0 109 43" width="109" xmlns="http://www.w3.org/2000/svg" xmlns:xlink="http://www.w3.org/1999/xlink"><linearGradient id="a" gradientUnits="userSpaceOnUse" x1=".000001" x2="90.4768" y1="40.3646" y2="-23.3141"><stop offset="0" stop-color="#00288e"/><stop offset=".0989583" stop-color="#00288e"/><stop offset=".427083" stop-color="#6e1c5e"/><stop offset=".875" stop-color="#dd031f"/><stop offset="1" stop-color="#ff102c"/></linearGradient><g fill="url(#a)"><g clip-rule="evenodd" fill-rule="evenodd"><path d="m10.5136 11.0396c-2.81636 2.9024-4.31687 6.4845-4.31687 10.5318 0 3.8276 1.50051 7.5596 4.31687 10.3509 2.8372 2.8765 6.5482 4.3005 10.527 4.3005 3.9138 0 7.6898-1.424 10.4697-4.3005 5.8122-5.8048 5.8122-15.0934 0-20.8827-2.4445-2.40095-5.6405-3.97749-9.0966-4.2256-.4837-.06978-.892-.07754-1.3731-.07754-3.9788 0-7.6898 1.46541-10.527 4.30314zm-.52789 11.7904c3.09989-.5401 5.89279-2.0624 8.19429-4.1816 2.1922-2.2796 3.6485-5.0967 4.0932-8.0817 1.914.2791 3.62.902 5.1231 1.8427l-15.4368 15.4449c-1.1-1.4525-1.7917-3.1763-1.97379-5.0243zm3.17529-9.1103c1.4667-1.455 3.274-2.5017 5.175-2.8713-.4057 1.9461-1.4407 3.6622-2.8476 5.1198-1.5109 1.4706-3.2532 2.4088-5.2868 2.8947.5045-1.8531 1.5135-3.6674 2.9594-5.1432zm1.4537 16.6648 15.4809-15.1994c1.0637 1.3853 1.6748 3.0963 1.8646 4.7684-3.0296.5453-5.885 1.9048-8.1761 4.1404-2.1948 2.3363-3.6953 5.2439-4.1686 8.3659-1.8542-.1576-3.5029-.9898-5.0008-2.0753zm11.874-3.6234c1.5005-1.4319 3.3313-2.4941 5.3701-2.8249-.4239 1.9461-1.4901 3.8121-3.0192 5.3964-1.4745 1.4241-3.3521 2.5018-5.3363 3.0058.4603-2.1064 1.4511-4.0654 2.9854-5.5773z"/><path d="m6.22828 6.73663c-3.98662 4.02917-6.22828 9.18267-6.22828 14.83497 0 5.5463 2.24166 10.8212 6.22828 14.6359 3.90602 3.9698 9.17472 6.0916 14.81262 6.0916 5.5964 0 10.8833-2.1218 14.8179-6.0916 4.0204-3.8147 6.2022-9.0896 6.2022-14.6359 0-5.6523-2.1818-10.8058-6.2022-14.83497-3.9346-3.93875-9.2215-6.029599-14.8179-6.029599-5.6379 0-10.9066 2.090849-14.81262 6.029599zm2.64994 26.91737c-3.26627-3.3365-5.08404-7.6087-5.08404-12.0824 0-4.5952 1.81777-8.8751 5.08404-12.1652 3.19608-3.22802 7.55458-4.98805 12.16268-4.98805 4.577 0 8.9199 1.76003 12.1991 4.98805 3.1831 3.2901 5.0165 7.57 5.0165 12.1652 0 4.4737-1.8334 8.7459-5.0165 12.0824-3.2792 3.2151-7.6221 4.97-12.1991 4.97-4.6081 0-8.9666-1.7549-12.16268-4.97z"/><path d="m92.9401 10.3439 1.463-.72314c1.7787-.77291 3.5728-1.15937 5.3631-1.15937 1.7868 0 3.5688.38646 5.3128 1.15937l.886.53184.331.7691c1.525 3.5317 1.201 6.9026.37 8.9306.153.2223.334.4432.521.6713.439.5378.912 1.1157 1.142 1.8464.955 2.7396.993 6.2292-.555 9.7035l-.392.8188-.863.4477c-1.748.6964-4.466 1.1326-6.221 1.1326-1.7715 0-4.9247-.5931-7.3579-1.7334zm4.9896 3.2753v5.1732c.2251 0 .443.002.6554.004.2019.0018.3988.0037.5921.0037.1963 0 .3888-.0039.5775-.0077.8163-.0383 1.5473-.088 2.4103-.352.531-1.653.531-2.9807 0-4.6834-1.448-.3712-2.8223-.4324-4.2353-.1378zm0 9.6576v5.9384c.8701.2564 1.8904.3788 2.8723.3788 1.051 0 2.064-.1377 2.807-.3788.542-1.0331.881-3.9946-.031-5.7126-.774-.2258-1.937-.2947-3.338-.2794-.4074 0-1.2964.0251-1.9791.0443-.1177.0034-.2293.0065-.3312.0093z"/><path d="m74.8371 10.3439 1.436-.72314c1.748-.77291 3.5267-1.15937 5.3054-1.15937 1.7826 0 3.569.38646 5.3324 1.15937l.9163.53184.3619.7691c1.5131 3.5317 1.182 6.9026.3195 8.9306.1614.2462.3517.4616.5505.6867.4038.457.843.9542 1.1474 1.831.8817 2.7664.8932 6.2292-.6237 9.7035l-.3542.8188-.8586.4477c-1.7594.6964-4.4545 1.1326-6.214 1.1326-1.8095 0-4.9588-.5931-7.3189-1.7334zm4.9127 3.2753v5.1732c.222 0 .438.002.6496.0039.2029.0019.4017.0038.5978.0038.196 0 .3882-.0037.5841-.0075l.0126-.0002c.8509-.0383 1.5901-.088 2.4371-.352.5313-1.653.5313-2.9807 0-4.6834-1.4822-.3712-2.9183-.4324-4.2812-.1378zm0 9.6576v5.9384c.8855.2564 1.9173.3788 2.9029.3788 1.0511 0 2.0521-.1377 2.772-.3788.566-.6428 1.1551-4.0597-.0231-5.7126-.8085-.2258-1.925-.2947-3.415-.2794-.3018 0-1.1661.024-1.8534.0431-.1368.0037-.2665.0073-.3834.0105z"/></g><path d="m60.6073 10.4511 1.5708-.52041c1.9135-.75761 3.85-1.15171 5.7982-1.15171 1.2474 0 2.4948.1607 3.7461.48594v5.21138c-2.0791-.8571-4.1234-.9374-6.1871-.5242v5.3454c1.1262 0 2.4767-.0035 3.6898-.0066.9891-.0026 1.8869-.0049 2.4973-.0049v4.9971h-6.1871v10.1818h-4.928z"/><path d="m46.3428 10.4511 1.617-.52041c1.9135-.75761 3.8501-1.15171 5.7944-1.15171 1.2474 0 2.4986.1607 3.7499.48594v5.21138c-2.0906-.8571-4.1504-.9374-6.2409-.5242v5.3454c1.1544 0 2.5179-.0035 3.739-.0067.99-.0025 1.8865-.0048 2.5019-.0048v4.9971h-6.2409v10.1818h-4.9204z"/></g></svg>